<?xml version="1.0" encoding="UTF-8"?>
<svg id="Layer_2" data-name="Layer 2" xmlns="http://www.w3.org/2000/svg" viewBox="0 0 775.09 295.49">
  <defs>
    <style>
      .cls-1 {
        fill: #f2f1f0;
      }

      .cls-2 {
        fill: #ed1474;
      }

      .cls-3 {
        fill: #ed1775;
      }
    </style>
  </defs>
  <g id="Layer_1-2" data-name="Layer 1">
    <g>
      <g>
        <path class="cls-2" d="M377.02,240.29c1.87-5.72,3.1-11.63,3.66-17.62l.12-1.29c.22-2.22.81-4.92,1.28-7.14,2.2-10.35,7.01-23.99,10.54-34.23,6.1-17.7,14.09-34.77,20.26-52.45.27-1.94-.02-2.35-2-1.97-2.5.47-8.59,4.91-11.71,8.57-1.43,1.68-3.13,3.12-5.07,4.17-3.99,2.16-5.83,7.42-9.76,10.19,5.36.07-.31,7.05-2.61,9.06-3.64,3.18-8.87,2.66-12.23-.62-13.08-12.73-2.17-24.8,8.17-34.47,6.16-5.76,17.52-14.62,24.65-18.97,14.83-9.04,43.08-21.41,60.39-22.47,11.27-.69,27.54,5.26,33.26,15.47,14.07,25.13-13.6,53.02-31.54,67.81-5.41,4.46-13.41,8.52-18.15,13.1-1.02.98-2.01,1.67-1.99,3.29,15.99,21.52,29.96,44.45,44.66,66.78-.83-.11-1.85.18-2.6.01-1.08-.24-1.87-1.88-2.59-.65l9.15,11.02c.82,1.37,4.72,5.62,6.53,5.17,1.34,2.51,2.64,5.33,3.94,7.79-6.81-.1-8.92-6.96-13.04-11.02-3.97-3.92-8.79-6.68-12.46-10.95-.45,1.7,2,3.01,2.97,4.84.43.81,1.52,3.34,1,4.21-30.16-14.72-46.45-47.21-66.75-72.48-1.57-.02-6.84,19.1-7.7,22.14-1.79,6.33-2.78,13.57-4.44,19.55-2.79,9.98-7.12,20.35-8.95,29.98-.4,2.09-.99,8.75-1.26,9.12-.11.16-3.79.19-3.9.02-.59-.92,1.23-4.3-1.32-3.9-.41,2.46-.98,9.35-3.21,10.42-1.74.83,1.95-10.17-4.58-5.18.92-1.07,2.94-3.96,3.3-5.14.31-1.01,1.83-8.11,1.83-8.55l-.11-21.47c-1.81-.29-1.8,2.21-2.26,3.58-1.38,4.13-1.43,11.66-6.77,12.08.61-2.86,1.13-4.75,1.26-7.81h0ZM426.07,163.26c.95,1,5.16-2.6,6.35-3.41,12.14-8.27,36.36-31.2,38.66-45.92,2.39-15.3-22.15-7.83-30.05-5.1-2.81.97-21.71,9.51-21.68,10.89.01.69,8.59,6.28,10.47,9.03,7.94,11.62-5.95,32.21-3.75,34.53Z"/>
        <path class="cls-2" d="M663.07,198.45c-1.66-3.56-3.57-7.76-3.97-11.69-4.57-.87-1.53,3.05-1.23,5.85.81,7.62-5.89-.27-7.63-2.76-8.85-12.67-5.56-38.1-2.75-52.76.72-3.77,3.12-7.17,2.18-11.42-4.66,4.54-8.48,10.26-13.59,14.37-2.57,2.06-11.59,6.33-12.02,6.87-1.29,1.62-5.48,14.69-7.76,18.86-9.38,17.12-31.61,39.92-52.59,26.51-7.1-4.54-11.21-11.76-12.67-19.93-.27-1.53.09-1.98-.68-2.02-1.08-.06-2.06.62-2.48,1.61-1.63,3.84-4.68,7.73-7.22,10.89-7.22,9-30.81,39.71-41.35,20.88-8.59-15.35,4.05-51.2,10.2-67.24,2.25-5.86,6.72-20.31,13.23-20.67,9.95-.55,10.84,8.15,9.56,16.04-2.81,17.32-13.83,36.71-15.04,55.02-.37,5.51,2.32,3.33,5.87.62,6.47-4.96,23.05-26.41,25.84-33.97,5.17-13.98,6.01-30.11,20.79-38.97,1.69-1.01,5.25-1.37,5.51-1.67.44-.5.24-3.56.73-5.07,3.11-9.65,10.68-15.82,20.92-16.89,15.4-1.61,27.89,13.36,29.3,27.71.26,2.66-.45,14.43.07,14.97,2.06,2.15,14.49-11.1,16.22-13.06,1.81-2.05,4.04-4.99,5.77-7.24,1.64-2.13,11.96-16.04,10.34-17.59-1.01-.97-15.6,6.2-21.14,5.08-4.95-1-13.49-8.98-10.85-14.04,3.13-5.99,32.17-10.8,39.11-14.43,1.99-1.5,4.34-8.69,5.4-11.49,2.21-5.82,6.3-26.23,11.48-27.57,6.99-1.81,11.16,12.06,10.98,17.33-.09,2.64-3.15,14.48-2.6,15,1.57,1.48,13.24-1.28,32.09-4.32,18.85-3.04,33.76-3.01,37.64-3.17,2.58-.11,5.25.18,7.81-.04-1.11,1.68-2.4,3.34.02,3.9.36.09.86-.02,1.3,0l5.22,3.87c-2.1-.31-12.7.84-13.08,2.18-.19.66.28,1.56.09,1.79-1.64,2.05-32.43,7.5-35.01,8.36-8.3,2.76-33.41,6.49-41.57,9.84-1.59.65-1.78,1.36-2.49,2.71-3.78,7.19-7.5,23.49-9.58,31.94-5.16,20.91-10.63,45.35-6.52,66.68.27,1.18-1.13,2.12-1.29,2.61-1.84-8.32-3.13-6.1-2.6,1.31.1,1.42,1.18,2.89,1.14,4.42l-1.11.78ZM606.77,133.69c2.88-3.26,2.36-16.61.85-21.12-7.37-22.04-23.94-1.26-15.23,11.47,1.51,2.21,12.67,11.6,14.38,9.66ZM583.68,133.21c-1.51-2.13-3.02-7.47-3.61-7.19-4.07,1.97-9.06,22.03-9.49,26.84-2.43,27.26,14.57,27.03,27.03,7.34.89-1.4,4.87-8.28,5.13-9.19,1.76-6.13-5.05-5.85-9.37-8.34-4.47-2.58-6.64-5.16-9.69-9.46ZM662.95,175.03l-.1-18.22c-1.78-.31-2.07,3.69-2.23,4.91-.46,3.7-1.9,11.33,2.32,13.3Z"/>
        <path class="cls-2" d="M541.39,71.57c8.97,7.48,7.63,24.2-.79,31.27-13.63,11.45-22.86-6.3-17.37-19.46,1.93-4.61,12.34-13.85,18.16-11.81Z"/>
      </g>
      <g>
        <g>
          <path class="cls-3" d="M308.69,188.91c6.8,5.59,14.52,10.23,19.6,17.48l-6.48,1.98c-.29,1.89,2,1.46,3.28,2.55,5.99,5.12-3.18,4.41-7.81,3.98-7.47-.7-16.73-5.96-22.81-10.3-10.88-7.77-22.52-19.77-33.34-28.44-1.1-.88-6.35-4.85-7.16-3.88-2.25,5.04-8.59,39.14-10.26,40.4-.61.46-2.95-1.5-3.94-.73-1.83,1.42-1.03,7.14-7.54-.05-7.56-8.36-2.29-21.5.6-31.39,4.8-16.47,12.29-32.61,17.02-49.17,0-1.68-7.8,2.05-9.77,2.06-7.8.03-11-9.28-7.3-15.07,2.07-3.24,20.99-12.89,25.56-14.84,12.11-5.16,25-9.52,37.76-4.52,20.87,8.18,15.65,28.73,2.61,41.88l-23.98,18.97c3.35,3.13,6.38,6.65,9.81,9.69,7.65,6.79,16.26,12.91,24.16,19.41ZM292.7,117.43c-2.96-2.72-20.12-.05-20.35,3.31-.06.91.87,2.23.59,3.61-.57,2.85-5.96,15.42-4.84,16.63.82.87,8.14-4.48,9.51-5.47,2.5-1.8,18.61-14.83,15.08-18.07Z"/>
          <path class="cls-3" d="M284.16,96.75c3.97,0,7.96.65,11.94,2.21,20.87,8.18,15.65,28.73,2.61,41.88l-23.98,18.97c3.35,3.13,6.38,6.65,9.81,9.69,7.65,6.79,16.26,12.91,24.16,19.41,6.8,5.59,14.52,10.23,19.6,17.48l-6.48,1.98c-.29,1.89,2,1.46,3.28,2.55,4.1,3.51,1.09,4.28-2.69,4.28-1.75,0-3.66-.16-5.12-.3-7.47-.7-16.73-5.96-22.81-10.3-10.88-7.77-22.52-19.77-33.34-28.44-.98-.78-5.27-4.03-6.76-4.03-.18,0-.32.05-.4.15-2.25,5.04-8.59,39.14-10.26,40.4-.07.05-.15.07-.25.07-.69,0-2.11-.98-3.09-.98-.23,0-.43.05-.59.18-1.15.89-1.26,3.5-2.81,3.5-.91,0-2.32-.89-4.72-3.55-7.56-8.36-2.29-21.5.6-31.39,4.8-16.47,12.29-32.61,17.02-49.17,0-.31-.26-.43-.7-.43-1.96,0-7.46,2.49-9.07,2.49-.01,0-.03,0-.04,0-7.78,0-10.96-9.29-7.26-15.07,2.07-3.24,20.99-12.89,25.56-14.84,8.34-3.55,17.04-6.73,25.82-6.73M268.4,141.07c1.59,0,7.96-4.65,9.22-5.56,2.5-1.8,18.61-14.83,15.08-18.07-.85-.79-2.89-1.12-5.37-1.12-6.09,0-14.82,2.04-14.98,4.43-.06.91.87,2.23.59,3.61-.57,2.85-5.96,15.42-4.84,16.63.06.07.16.1.29.1M284.16,93.75v3-3h0c-9.36,0-18.51,3.35-27,6.97-1.86.79-23.94,11.35-26.91,15.98-2.56,4-2.7,9.35-.36,13.63,2.11,3.85,5.81,6.06,10.14,6.06,1.25,0,2.69-.48,5.13-1.31.15-.05.31-.1.47-.16-2.16,6.86-4.74,13.74-7.25,20.42-2.98,7.93-6.05,16.13-8.44,24.33-.31,1.07-.65,2.18-1,3.31-3.04,9.9-6.82,22.23,1.06,30.94,2.92,3.22,4.93,4.54,6.95,4.54,2.58,0,3.73-2,4.32-3.24.65.28,1.37.54,2.18.54.76,0,1.47-.23,2.06-.67,1.49-1.12,2.1-2.85,6.36-21.98,1.33-5.98,2.91-13.07,4-17.01,1.09.7,2.4,1.63,3.38,2.41,4.51,3.61,9.28,7.92,13.91,12.09,6.46,5.83,13.15,11.86,19.57,16.45,4.15,2.97,14.83,9.96,24.28,10.85,1.66.16,3.6.31,5.4.31s6.23,0,7.42-3.2c.83-2.25-.57-4.21-1.74-5.4l1.1-.34c.92-.28,1.65-.98,1.96-1.89s.17-1.91-.38-2.7c-4.01-5.72-9.46-9.85-14.73-13.85-1.8-1.37-3.67-2.78-5.42-4.22-3.17-2.6-6.49-5.18-9.7-7.67-4.84-3.75-9.84-7.63-14.38-11.66-1.81-1.61-3.49-3.34-5.27-5.17-.65-.67-1.32-1.36-1.99-2.04l21.3-16.86c.09-.07.18-.15.27-.24,9.28-9.36,13.82-21,11.84-30.38-1.09-5.14-4.65-12.16-15.48-16.4-4.09-1.6-8.47-2.41-13.03-2.41h0ZM275.6,121.51c1.93-.99,7.07-2.2,11.73-2.2,1.18,0,1.99.08,2.53.17-1.79,3.26-9.82,10.58-13.99,13.58l-.23.16c-1.34.97-2.45,1.74-3.37,2.36.55-1.62,1.16-3.3,1.6-4.52,1.1-3.04,1.79-4.97,2.02-6.14.27-1.36-.02-2.55-.28-3.42h0Z"/>
        </g>
        <g>
          <path class="cls-3" d="M326.9,186.21c.54-3.89,2.45-8.63,2.59-12.41.39-10.09-1.07-12.64,1.77-24.05,1.2-4.84,12.23-35.15,10.87-36.48-1.13-1.1-14.34,5.68-18.55,5.08-4.63-.66-13.12-9.63-10.83-14.04.8-1.55,3.08-2.48,4.6-3.27,6.72-3.48,29.14-8.68,32.48-11.87,1.78-1.69,5.05-14.26,5.82-17.54,1.16-4.94.33-21.04,9.61-16.39,9.64,4.83,5.49,26.77,6.65,27.96s23.91-3.73,27.99-4.07c1.94-.16,3.89.06,5.82-.01,2.15-.08,10.93-.45,11.72-.05.14.07-.07.86,0,1.29-1.04.24-2.36-.64-2.6.67-.49,2.65.53,1.83,2.62,1.93,1.3.06,2.61-.09,3.9-.02.18,4.6.81,3.62-3.22,3.88-2.44.16-4.51-.05-6.9.98-1.61.7-1.44,2.39-1.87,2.64-2.16,1.29-12.27,4.88-16.56,6.96-8.78,4.25-18.35,4.18-26.6,9.27-8.42,25.79-17.62,52.17-19.78,79.45-.07.86.06,1.74.01,2.6-.28,4.83-.89,9.89-1.23,14.32l-2.6-1.72c-4.24,3.29-2.26,7.16-2.55,12.15-11.22-8.22-11.68-14.34-13.16-27.26Z"/>
          <path class="cls-3" d="M362.25,54.39c.86,0,1.86.26,3,.83,9.64,4.83,5.49,26.77,6.65,27.96.12.13.49.18,1.06.18,4.75,0,23.28-3.95,26.93-4.26.54-.05,1.08-.06,1.63-.06,1.11,0,2.21.06,3.31.06.29,0,.59,0,.88-.02,1.42-.06,5.75-.23,8.74-.23,1.53,0,2.71.05,2.98.18.14.07-.07.86,0,1.29-.14.03-.28.04-.42.04-.45,0-.91-.11-1.3-.11-.43,0-.77.14-.88.74-.31,1.71,0,1.98.81,1.98.37,0,.85-.06,1.43-.06.12,0,.24,0,.37,0,.23.01.46.01.69.01.82,0,1.65-.05,2.47-.05.25,0,.5,0,.75.02.18,4.6.81,3.62-3.22,3.88-2.44.16-4.51-.05-6.9.98-1.61.7-1.44,2.39-1.87,2.64-2.16,1.29-12.27,4.88-16.56,6.96-8.78,4.25-18.35,4.18-26.6,9.27-8.42,25.79-17.62,52.17-19.78,79.45-.07.86.06,1.74.01,2.6-.28,4.83-.89,9.89-1.23,14.32l-2.6-1.72c-4.24,3.29-2.26,7.16-2.55,12.15-11.22-8.22-11.68-14.34-13.16-27.26.54-3.89,2.45-8.63,2.59-12.41.39-10.09-1.07-12.64,1.77-24.05,1.2-4.84,12.23-35.15,10.87-36.48-.08-.08-.24-.12-.45-.12-2.49,0-13.16,5.24-17.52,5.24-.21,0-.41-.01-.59-.04-4.63-.66-13.12-9.63-10.83-14.04.8-1.55,3.08-2.48,4.6-3.27,6.72-3.48,29.14-8.68,32.48-11.87,1.78-1.69,5.05-14.26,5.82-17.54,1.02-4.33.51-17.23,6.61-17.23M362.25,51.39c-7.38,0-8.37,9.49-9.03,15.76-.16,1.52-.31,2.95-.5,3.78-1.26,5.37-3.88,14.43-5.04,16.12-1.62,1.33-10.21,3.98-15.92,5.75-6.46,2-12.56,3.89-15.8,5.57-.21.11-.43.22-.66.33-1.72.86-4.08,2.03-5.22,4.22-.79,1.53-1.33,4.16.62,7.95,2.33,4.52,7.88,9.8,12.45,10.45.32.05.66.07,1.01.07,3.03,0,7.57-1.7,11.96-3.35.75-.28,1.61-.6,2.42-.9-1.42,5.26-4.65,14.91-6.6,20.73-1.77,5.29-3.17,9.47-3.59,11.16-2.05,8.26-1.96,12.17-1.84,17.13.05,2.1.11,4.49-.01,7.53-.07,1.82-.69,4.15-1.29,6.4-.5,1.9-1.02,3.86-1.28,5.71-.03.25-.04.5,0,.75l.1.86c1.44,12.68,2.24,19.66,14.26,28.47.52.38,1.15.58,1.77.58.43,0,.87-.09,1.28-.29.99-.47,1.65-1.44,1.72-2.54.09-1.57-.01-3-.1-4.27-.14-1.97-.19-3.17.19-4.11l.41.27c.5.33,1.08.5,1.65.5.45,0,.9-.1,1.32-.31.95-.47,1.59-1.41,1.67-2.47.13-1.76.31-3.61.5-5.57.28-2.89.56-5.87.73-8.81.03-.56.01-1.08,0-1.54-.02-.38-.03-.73,0-1,1.97-24.93,10.01-49.41,17.78-73.08.5-1.53,1.01-3.07,1.51-4.6,3.89-2.18,8.16-3.25,12.66-4.39,4.18-1.05,8.51-2.14,12.75-4.2,1.97-.96,5.31-2.28,8.54-3.55,4.29-1.7,6.99-2.78,8.25-3.53,1.13-.67,1.46-1.75,1.65-2.32.02-.07.05-.15.07-.22,1.26-.5,2.48-.54,4.02-.59.55-.02,1.11-.04,1.69-.07.63-.04,1.12-.05,1.56-.05,1.19-.02,2.55-.03,3.63-1.21,1.11-1.2,1.02-2.62.92-4.11-.03-.44-.06-.97-.09-1.61-.06-1.55-1.29-2.8-2.85-2.88-.3-.02-.6-.02-.9-.02-.05,0-.11,0-.16,0,.21-2.12-.78-3.09-1.65-3.54-.7-.36-1.46-.5-4.33-.5s-6.84.16-8.55.23h-.31c-.25.02-.51.03-.76.03-.52,0-1.04-.02-1.57-.03-.58-.02-1.16-.03-1.75-.03-.69,0-1.31.02-1.88.07-1.57.13-5.15.79-9.68,1.62-5.07.93-11.69,2.14-15.27,2.51.01-.46.03-.95.04-1.4.25-7.64.73-21.87-8.14-26.31-1.52-.76-2.99-1.15-4.35-1.15h0Z"/>
        </g>
        <g>
          <path class="cls-3" d="M222.15,61.84c1.32,2.55,2.91,15.58,2.77,18.91-.45,10.47-2.31,23.89-3.79,34.44-.6,4.26-2.97,10.21-3.7,15.11-.55,3.72-3.55,26.85-2.58,27.86.39.41,8.73-2.47,11.04-2.67,2.09-.18,3.79-.74,3.28,1.96l-7.71,14.38-10.49,5.38c-1.07,18.88-3.23,37.48-2.25,56.46-2.28.68-.64-3.16-1.95-2.58-2.5,1.09-.93,6.57-3.86,5.21-.65-.3-4.62-3.3-5.18-3.93-5.77-6.48-6.68-32.03-6.15-40.91.27-4.49,4.19-9.15-1.9-8.37-6.87.88-25.76,8.29-33.17,11.2-8.8,3.45-13.94,3.93-18.42,12.84-5.31,10.57-16.15,34.47-19.03,45.24-11.19-.32-11.98-13.67-10.53-22.07.4-2.29,7.05-15.08,6.42-15.64s-9.53,3.97-11.63,4.68c-2.39.81-5.12.16-6.56.61-1.93-6.49-10.86-5.23-3.99-13.33,8.47-9.99,23.31-15.53,34.35-22,19.9-36.72,40.01-75.44,63.31-109.51,4.46-6.52,9.51-12.74,13.7-19.44,3.55-.74,7.56-.42,10.93.92,1.22.49,6.81,4.69,7.1,5.25ZM157.01,174.07l35.45-12.16c2.04-2,2.29-16.94,2.9-21.08,1.13-7.57,2.33-15.4,3.65-22.92.05-.26.97-.99,1.16-2.09,2.24-13.28,3.28-16.8-6.98-4.32-18.48,22.47-36.18,62.57-36.18,62.57Z"/>
          <path class="cls-3" d="M207.98,55.28c2.42,0,4.88.44,7.06,1.31,1.22.49,6.81,4.69,7.1,5.25,1.32,2.55,2.91,15.58,2.77,18.91-.45,10.47-2.31,23.89-3.79,34.44-.6,4.26-2.97,10.21-3.7,15.11-.55,3.72-3.55,26.85-2.58,27.86.03.03.09.04.18.04,1.29,0,8.7-2.53,10.86-2.71.73-.06,1.41-.17,1.97-.17,1.04,0,1.64.38,1.31,2.13l-7.71,14.38-10.49,5.38c-1.07,18.88-3.23,37.48-2.25,56.46-.19.06-.35.08-.49.08-1.43,0-.44-2.72-1.23-2.72-.07,0-.14.02-.23.06-2.22.97-1.23,5.43-3.05,5.43-.22,0-.49-.07-.81-.22-.65-.3-4.62-3.3-5.18-3.93-5.77-6.48-6.68-32.03-6.15-40.91.25-4.16,3.62-8.45-.7-8.45-.35,0-.75.03-1.2.09-6.87.88-25.76,8.29-33.17,11.2-8.8,3.45-13.94,3.93-18.42,12.84-5.31,10.57-16.15,34.47-19.03,45.24-11.19-.32-11.98-13.67-10.53-22.07.4-2.29,7.05-15.08,6.42-15.64-.04-.03-.1-.05-.19-.05-1.45,0-9.46,4.06-11.44,4.73-1.14.39-2.37.44-3.49.44-.43,0-.84,0-1.23,0-.72,0-1.35.03-1.83.18-1.93-6.49-10.86-5.23-3.99-13.33,8.47-9.99,23.31-15.53,34.35-22,19.9-36.72,40.01-75.44,63.31-109.51,4.46-6.52,9.51-12.74,13.7-19.44,1.25-.26,2.55-.39,3.86-.39M157.01,174.07l35.45-12.16c2.04-2,2.29-16.94,2.9-21.08,1.13-7.57,2.33-15.4,3.65-22.92.05-.26.97-.99,1.16-2.09,1.29-7.63,2.18-12.04.75-12.04-1.05,0-3.37,2.41-7.74,7.72-18.48,22.47-36.18,62.57-36.18,62.57M207.98,52.28h0c-1.53,0-3.03.15-4.47.45-.8.17-1.5.65-1.93,1.34-2.45,3.91-5.27,7.75-8,11.47-1.87,2.55-3.81,5.19-5.64,7.86-20.31,29.7-38.23,62.97-55.57,95.14-2.51,4.65-5.01,9.29-7.5,13.9-2.73,1.57-5.67,3.08-8.77,4.68-9.38,4.83-19.08,9.83-25.63,17.55-2.47,2.91-3.46,5.19-3.24,7.38.27,2.62,2.18,4.09,3.71,5.28,1.33,1.03,2.47,1.92,2.93,3.45.23.77.75,1.41,1.46,1.79.44.23.93.35,1.41.35.3,0,.6-.04.89-.14.05-.01.28-.04.94-.04.18,0,.37,0,.56,0,.22,0,.45,0,.68,0,1.33,0,2.89-.07,4.45-.6.84-.29,2.21-.9,4.36-1.89.33-.15.71-.33,1.12-.51-.26.56-.51,1.1-.73,1.59-2.23,4.84-3.23,7.1-3.46,8.42-.56,3.23-1.96,14.28,3.47,20.91,2.4,2.94,5.84,4.55,9.93,4.67.03,0,.06,0,.09,0,1.35,0,2.55-.91,2.9-2.22,2.88-10.77,13.86-34.79,18.82-44.67,3.22-6.42,6.43-7.58,12.81-9.89,1.27-.46,2.58-.93,4.02-1.5l.09-.04c6.96-2.73,25.27-9.91,32.04-10.93-.06.19-.11.37-.16.53-.39,1.31-.88,2.93-.98,4.63-.33,5.45-.43,34.84,6.91,43.09.81.91,5.13,4.17,6.15,4.65.72.33,1.4.5,2.08.5,2.2,0,3.25-1.47,3.79-2.83.3.06.56.07.73.07.43,0,.89-.07,1.34-.21,1.33-.4,2.21-1.65,2.14-3.03-.72-13.86.29-27.87,1.26-41.41.31-4.26.62-8.64.88-13.01l8.96-4.59c.54-.28.99-.71,1.28-1.25l7.71-14.38c.15-.27.25-.56.31-.87.12-.66.5-2.65-.81-4.22-.81-.97-1.97-1.46-3.45-1.46-.53,0-1.05.06-1.55.11-.22.02-.44.05-.68.07-1.31.11-3.46.71-6.59,1.61-.41.12-.87.25-1.32.38.37-6.01,1.98-19.04,2.67-23.74.34-2.3,1.11-4.98,1.86-7.58.78-2.71,1.52-5.26,1.84-7.56,1.33-9.49,3.34-23.84,3.81-34.73.14-3.25-1.38-17.11-3.1-20.43-.89-1.71-7.54-6.21-8.65-6.66-2.5-.99-5.32-1.52-8.17-1.52h0ZM162.68,168.95c5.75-12.13,19.17-38.94,32.83-55.54.99-1.2,1.83-2.2,2.54-3.03-.16.96-.33,1.97-.5,2.98l-.32,1.9c-.05.09-.19.27-.28.37-.29.37-.74.92-.89,1.76-1.36,7.7-2.57,15.61-3.67,23-.2,1.33-.35,3.53-.53,6.08-.25,3.54-.73,10.57-1.49,12.98l-27.7,9.5h0Z"/>
        </g>
      </g>
      <path class="cls-2" d="M154.75,125.87c-.19-.17.66,3.88.75,4.74.04.44-.1.1-.64-1.89-.28-.98-.61-2.43-1.16-4.25-.54-1.83-1.18-4.26-2.08-6.98-1.72-5.45-3.4-10.81-5.07-16.1-1.74-5.39-3.46-10.7-5.16-15.95-2.06,7.29-4.09,14.46-6.1,21.56-.49,1.75-.99,3.49-1.48,5.22-.49,1.75-1,3.43-1.44,5.32-.92,3.69-1.83,7.36-2.74,11.03l-.69,2.76c-.12.45-.23.95-.31,1.32l-.17.75-.66,2.99c-.43,1.99-.91,3.97-1.3,5.96-.82,3.98-1.64,7.95-2.37,11.94-3.03,15.97-5.42,32.22-7.69,49.9.02.98.03,2.04.05,3.07-1.14,8.06-2.29,16.2-3.46,24.41-.59,4.1-1.21,8.2-1.85,12.32l-.47,3.08c-.16,1-.32,1.92-.49,2.76-.35,1.66-.82,2.95-1.32,3.72-.48.73-1.08,1.3-2.13,1.88-1.05.56-2.49,1.06-4.17,1.42-.85.18-1.73.35-2.69.49l-1.45.21c-.51.07-1.01.13-1.45.16l-2.73.23c-.9.02-1.78-.01-2.66,0-3.52-.13-6.8-.84-9.9-2.22-3.1-1.37-6.06-3.43-9-5.98-.96-.77-1.9-1.71-2.85-2.55-.95-.93-1.89-1.81-2.85-2.78-.87-.87-1.73-1.74-2.6-2.61l-.08-.07-.11-.1s-.01-.11.04-.12l.15-.02h.06s.97-.1.97-.1c3.56-.37,7.15-.55,10.73-.78,3.58-.22,7.16-.48,10.76-.59,14.35-.69,28.79-.81,43.31-1.07,14.52-.26,29.17-.64,43.85-1.92,3.67-.38,7.34-.67,11.01-1.13l10.99-1.53,10.93-2.03c1.83-.3,3.62-.78,5.43-1.21l5.41-1.3c-1.69.23-2.5.27,3.77-1.3,3.23-.97,6.62-1.99,10.15-3.05.88-.26,1.77-.53,2.67-.8.89-.3,1.77-.63,2.67-.95,1.8-.65,3.63-1.31,5.48-1.98,1.86-.68,3.75-1.34,5.66-2.06,1.87-.8,3.77-1.6,5.7-2.42,1.92-.82,3.88-1.65,5.85-2.48l1.48-.63.37-.16.15-.07c.34-.16.67-.35.97-.56.33-.23.67-.52.97-.82.62-.64,1.13-1.43,1.44-2.27.31-.83.44-1.69.43-2.48-.05-1.59-.57-3-1.65-4.25-.53-.61-1.23-1.18-2.05-1.58-.8-.41-1.75-.64-2.58-.68-.45-.02-.83,0-1.2.04-.19.02-.37.05-.56.09l-.1.02-.1.02-.2.05c-1.05.26-2.11.52-3.17.78-17.01,4.04-35.04,9.94-52.74,17.38-5.18,2.32-10.39,4.55-15.38,7.02-3.9,1.96-4.84,2.58-5.43,2.97-15.52,7.64-28.89,15.22-41.05,22.56-2.89,1.82-5.78,3.65-8.7,5.48-2.91,1.84-5.79,3.77-8.73,5.69-1.47.96-2.95,1.93-4.42,2.94-.42.28-.83.57-1.25.85l-.4.28c-.54.39-1.09.79-1.66,1.2l-1.78,1.32-.47.35-.24.18c-.08.04-.16.16-.25.1-.09-.07,0-.15.03-.21l.12-.21.24-.43c.73-1.3,1.45-2.6,2.18-3.91,1.29-2.28,2.58-4.56,3.88-6.85,1.87-3.26,3.68-6.57,5.51-9.88,3.66-6.63,7.22-13.38,10.72-20.23,6.98-13.72,13.51-27.99,19.2-43,5.68-15,10.5-30.77,13.84-47.34l-9.82-2.25c-3.62,14.57-6.09,29.61-7.22,45.49-1.12,15.88-.92,32.62,1.19,50.49l.92,7.79,6.24-4.62c1.2-.89,2.26-1.92,3.17-3.07.89-1.15,1.61-2.39,2.19-3.68,1.12-2.58,1.63-5.29,1.65-7.98,0-1.35-.14-2.7-.38-4.04-.27-1.36-.66-2.6-1.12-3.82-.95-2.43-2.25-4.65-3.74-6.63-3-3.98-6.65-7.06-10.41-9.76-3.79-2.7-7.8-4.96-11.84-7.01-4.05-2.05-8.09-3.89-12.16-5.75-4.07-1.86-8.18-3.69-12.32-5.49-8.28-3.61-16.68-7.14-25.18-10.66-4.25-1.74-8.52-3.5-12.81-5.26l-.4-.16-.2-.08-.05-.02c1.06-2.61-1.5,3.53-1.24,2.92,0,.02-.03.06-.04.08-.06.08-.05.04,0,.04.04,0,.07,0,.03,0-.03-.01-.06-.07-.05-.03,0,.02.02.06.01.13.2-2.78-.29,3.84-.21,3.16h.05s.11.01.11.01l.87.06,3.49.23c2.34.14,4.69.27,7.04.41,9.42.47,19.05.67,28.79-.15,9.72-.77,19.59-2.63,29.05-6.1,4.72-1.73,9.36-3.84,13.76-6.46,1.08-.68,2.2-1.3,3.25-2.05l1.86-1.27c.73-.52,1.41-1.08,2.11-1.62.69-.55,1.41-1.08,2.08-1.64l1.94-1.71c1.29-1.12,2.58-2.33,3.87-3.51l-.07-.45c-.03-.08.02-.15-.08-.23l-.24-.24c-.32-.32-.65-.65-.97-.98-.65-.65-1.31-1.25-1.98-1.87-.69-.59-1.33-1.22-2.12-1.77-.39-.28-.74-.58-1.16-.84-.42-.26-.84-.52-1.26-.78-.41-.28-.88-.49-1.33-.73-.46-.22-.9-.49-1.39-.68-.98-.39-1.93-.84-2.97-1.15-1.57-.53-3.13-.91-4.73-1.24-3.19-.65-6.43-.96-9.67-1.11-1.6-.02-3.21-.05-4.83-.07l-2.43-.03h-1.21s-1.21.04-1.21.04c-11.03.33-21.91,1.95-32.54,4.23-10.64,2.28-21.04,5.21-31.31,8.23-10.27,3.02-20.42,6.14-30.57,8.86-2.18.56-4.36,1.13-6.54,1.69-1.77.44-3.57.84-5.37,1.26-1.81.42-3.64.74-5.48,1.11l-.69.14-.34.07c-.11.03-.24.05-.33-.03-.09-.07-.14-.2-.1-.31.04-.11.13-.18.2-.27l.44-.52,1.76-2.07c1.76-2.06,3.54-4.18,5.44-6.28,1.07-1.21,2.15-2.42,3.24-3.64,1.33-1.51,2.7-2.99,4.07-4.49,5.48-6.02,11.18-12.11,16.98-18.29,11.6-12.36,23.65-25.05,35.15-38.21,11.5-13.15,22.45-26.8,31.84-40.85,1.17-1.76,2.34-3.5,3.51-5.24,1.08-1.79,2.16-3.57,3.24-5.34,1.07-1.77,2.14-3.53,3.2-5.29,1.05-1.96,2.1-3.9,3.14-5.83.61-1.16,1.27-2.33,1.84-3.46.57-1.13,1.14-2.26,1.71-3.39.31-.58.49-1.09.72-1.62l.66-1.59c.44-1.06.88-2.11,1.31-3.16.87-2.1,1.74-4.18,2.59-6.24l.32-.77.16-.39c.04-.12.18-.32-.04-.21l-1.67.43c-1.1.29-2.24.56-3.3.87,1.07-.13-.61.56-4.03,1.85-.86.31-1.8.77-2.84,1.21-.52.23-1.06.46-1.64.71-.57.24-1.16.6-1.77.91-1.21.67-2.53,1.26-3.85,2.19-1.33.88-2.76,1.71-4.14,2.81-.62.48-1.26.97-1.92,1.47-.62.5-1.22,1.05-1.85,1.58-1.28,1.05-2.5,2.26-3.77,3.48-.65.6-1.24,1.26-1.87,1.92-.61.66-1.26,1.31-1.87,2.01-1.2,1.41-2.47,2.81-3.63,4.33-4.79,5.99-9.14,12.89-12.94,19.88-7.6,13.99-13.35,28.16-16.65,37.02-3.27,8.88-4.23,12.43-1.18,5.81-4,9.94-8.25,21.35-12.53,32.7-4.26,11.35-8.49,22.63-12.16,32.42l-3.4-.66c.25-9.25.65-17.28,1.02-23.17.34-5.9.57-9.66.52-10.38-.15-2.25-.23-5.74-.12-11.19.1-5.46.39-12.89.75-23.02.29-10.12.75-22.95-.05-39.04-.11-2.01-.31-4.06-.46-6.17-.08-1.05-.16-2.12-.25-3.2-.07-1.08-.25-2.16-.37-3.27-.27-2.2-.54-4.46-.82-6.77-.39-2.29-.8-4.63-1.21-7.04-.1-.6-.2-1.2-.31-1.81-.11-.61-.27-1.2-.4-1.81-.28-1.21-.56-2.44-.84-3.68-.28-1.24-.57-2.5-.86-3.77-.37-1.25-.74-2.51-1.11-3.78-.34-1.14-.68-2.3-1.02-3.46-.12-.39-.21-.62-.36-.91-.14-.27-.32-.53-.57-.71-.12-.09-.27-.15-.42-.18-.04,0-.08-.02-.11,0l-.09.08-.18.17c-.26.26-.52.56-.75.91l-.17.26-.08.13-.34.53c-.46.79-.94,1.58-1.36,2.45-2.08,4-3.67,8.9-5.06,14.26-.7,2.68-1.36,5.51-2.05,8.4-.69,2.88-1.38,5.8-2.08,8.73-2.8,11.74-5.75,23.79-8.8,34.99-3.05,11.19-6.24,21.52-9.12,29.88-2.86,8.36-5.44,14.74-6.76,18.24-2.1,5.38-1.81,4.98-.32,1.68.74-1.62,1.78-4.09,2.96-6.88,1.13-2.82,2.43-6.01,3.61-9.23,2.42-6.43,4.6-12.93,5.77-16.4,1.17-3.48,1.43-3.92-.16,1.73,5.12-16.48,9.21-33.08,13.15-49.55.98-4.11,1.96-8.22,2.94-12.32.99-4.13,1.92-8.16,3.01-11.94,1.1-3.78,2.35-7.38,3.96-10.52.39-.8.83-1.54,1.26-2.29.1-.19.22-.37.34-.54l.17-.26.09-.13h0s0,0,0,0c0,0,0,.01-.01.02-.01.02-.03,0-.04-.01h0s0-.02.01.05l.53,1.9,1.36,4.82c.72,3.27,1.45,6.54,2.1,9.82l.78,4.98c.24,1.66.58,3.31.71,4.99,1.62,13.39,1.82,27.03,1.33,40.75-.97,27.46-4.67,55.19-5.36,83.59l14.32,2.77c3.96-10.54,7.92-21.07,11.88-31.6,3.97-10.53,7.87-21.06,11.96-31.39,4.09-10.34,8.41-20.51,13.27-30.32,2.42-4.9,4.99-9.74,7.7-14.43,2.7-4.64,5.6-9.12,8.77-13.32,3.17-4.2,6.6-8.11,10.34-11.56l1.4-1.29,1.46-1.2,1.46-1.19,1.36-.99s-.04.02-.05.02c-.1.04-.07,0,.01-.14l-1.8,3.37c-.67,1.19-1.4,2.34-2.1,3.51l-4.22,7.02-4.55,6.84-2.28,3.42-2.42,3.34-4.85,6.67-5.09,6.53-2.55,3.26-2.65,3.2-5.3,6.4c-14.42,16.9-29.9,33.1-45.34,49.63-3.87,4.12-7.71,8.29-11.54,12.49l-2.87,3.15-3.25,3.64c-1.86,2.1-3.79,4.2-5.58,6.29l-2.69,3.13-1.34,1.56c-.09.12-.27.28-.29.37l-.09.25-.17.5-2.76,8.06-.69,2.01-.35,1.01c-.05.1-.02.12.02.2l.15.27c.12.2.25.41.31.49l2.65,1.66,1.33.83.67.41.33.21.17.1.47-.08,7.57-1.26,3.78-.63,1.89-.31.95-.16,1.01-.23c1.35-.31,2.69-.58,4.06-.92l3.92-.98c22.34-5.6,43.74-13,65.38-17.47,10.8-2.22,21.66-3.73,32.45-3.8,2.68.07,5.41.06,8.05.17,2.6.15,5.1.44,7.44.92,1.17.24,2.3.53,3.35.89l.13.04.04.02s.13.07.13.11c-.04.03-.07.07-.11.1-.03.02,0,.01-.09.06l-1.16.78c-.4.29-.85.52-1.27.79-3.39,2.08-7.03,3.87-10.81,5.37-7.59,3.01-15.75,4.87-24.13,5.82-8.41.94-17.06,1.02-25.83.69-4.39-.17-8.81-.44-13.27-.75l-3.35-.24-.42-.03-.21-.02h-.1s-.37-.03-.37-.03c-.21,0-.41,0-.62,0-1.68.04-3.73.87-5.05,2.24-1.34,1.36-2.05,2.99-2.22,4.7-.18,1.69.23,3.64,1.4,5.26.28.39.61.76.95,1.09.33.31.7.6,1.08.85.35.23.71.42,1.08.59l.28.12.78.32,6.24,2.6c8.94,3.68,22.6,9.24,39.79,16.99,4.27,1.94,8.87,4.04,13.43,6.27,4.55,2.24,9.07,4.71,13.18,7.76,2.05,1.53,3.99,3.19,5.61,4.96,1.62,1.78,2.91,3.69,3.68,5.61.2.48.35.96.49,1.44l.15.66.1.68c.1.92.07,1.89-.09,2.79-.31,1.85-1.2,3.24-2.19,3.97l10.66,4.72c-1.58-13.61-2.17-28.31-1.29-43.75.87-15.44,3.21-31.62,7.38-48.04l-12.88-2.96c-2.69,13.32-6.61,26.87-11.6,40.47-4.99,13.61-11.03,27.27-17.84,40.96-6.81,13.69-14.36,27.38-22.36,41.2-1.9,3.22-3.79,6.45-5.7,9.68l-2.85,4.85-1.41,2.41-.91,2c-1.21,2.66-2.42,5.33-3.63,8l-.91,2-.46,1-.23.5-.11.25s0,.06.01.09l.32,1.3.64,2.61.08.33c.04.13,0,.17.19.37.17.2.46.45.61.53.1.07.23.05.34.07l1.37.19,2.76.38.69.09c.05.06.39-.08.65-.17l.82-.29,3.29-1.14c6.43-4.53,12.9-9.15,19.29-13.47,2.39-1.61,4.79-3.22,7.19-4.83,1.7-1.11,3.41-2.22,5.12-3.33,1.71-1.11,3.42-2.22,5.13-3.33l5.2-3.25c1.74-1.08,3.46-2.18,5.21-3.23l5.27-3.15c14.08-8.38,28.6-16.18,43.54-23.07,14.93-6.9,30.33-12.8,46.03-17.46,3.94-1.12,7.85-2.33,11.83-3.25l5.95-1.47.74-.18.09-.02c-.56-2.62,1.39,5.83-1.24-5.88-.01-.07,0-.09,0-.07-.05.05-.04.02.01.03,0,0,0,0-.01-.01-1.13-2.43,2.48,5.39-2.55-5.5l-.18.07-.35.15-.7.3-2.81,1.2-5.61,2.39c-1.87.8-3.72,1.62-5.65,2.26-3.82,1.35-7.6,2.8-11.43,4.06-15.35,5.04-31.14,8.23-47.01,10.08-15.88,1.86-31.83,2.39-47.69,2.67-15.85.27-31.62.36-47.14,1.03-1.94.08-3.87.16-5.8.24-1.93.12-3.86.24-5.78.36-3.84.26-7.67.42-11.47.8-3.09.28-6.17.55-9.23.82l-1.3.12-1.21.21c-.71.21-1.48.41-2.02.7-.28.14-.61.27-.86.42l-.71.45-.36.23-.29.23c-.19.16-.39.3-.58.47-.75.66-1.6,1.78-2.09,3.05-.51,1.26-.69,2.68-.58,3.77.02.28.06.52.1.76l.33.82.68,1.64.67,1.64.09.21.2.23.39.46.78.93c1.97,1.94,3.92,3.86,5.83,5.81,1.08,1.09,2.15,2.17,3.22,3.25,2.15,2.11,4.33,4.24,6.79,6.26,1.18,1.03,2.51,1.98,3.79,2.95.65.48,1.37.91,2.05,1.36.69.45,1.38.9,2.13,1.28l2.21,1.18c.76.36,1.55.67,2.32,1l1.17.49c.39.15.8.26,1.2.39l2.42.75c.81.21,1.64.35,2.46.52.82.15,1.64.36,2.46.41,1.63.15,3.28.39,4.88.33h2.41c.81,0,1.57-.12,2.35-.17l2.33-.21c.79-.07,1.44-.18,2.19-.29,2.91-.44,6.05-1,9.36-2.31,1.65-.66,3.34-1.54,4.95-2.74,1.61-1.18,3.08-2.71,4.25-4.43,1.15-1.72,1.92-3.5,2.46-5.17.54-1.67.87-3.24,1.13-4.7.26-1.47.44-2.76.63-4.06.19-1.3.38-2.6.57-3.89.76-5.16,1.46-10.24,2.15-15.23,1.35-9.96,2.65-19.59,3.9-28.85,2.53-18.47,5.09-35.35,8.04-50.32.37-1.87.73-3.72,1.09-5.53.39-1.81.77-3.59,1.15-5.34.18-.85.36-1.68.54-2.52l.08-.36c.05-.22.1-.43.16-.64.21-.83.42-1.57.62-2.23.04.04.07.2.1.27.22.63.42,1.27.6,1.94.18.75.37,1.5.55,2.25.77,3.01,1.37,6.12,2.08,9.2,1.34,6.19,2.59,12.5,3.83,18.9,2.49,12.8,4.91,25.95,8.03,39.2,3.12,13.24,6.94,26.6,12.31,39.52l2.01,4.84,2.3,4.73,1.15,2.36.73,1.5c.3.65.69,1.33,1.08,2.01l4.81,5.5,4.8,5.48c.04.08.12.07.2.06h.23s.46-.02.46-.02c.3-.02.61-.02.91-.06.6-.1,1.18-.2,1.73-.39,1.1-.36,2.08-.87,2.99-1.53,1.81-1.3,3.37-3.22,4.63-5.8.65-1.28,1.18-2.77,1.68-4.25l1.36-3.98c4.99-14.61,9.93-29.08,14.79-43.3l1.46-4.27.36-1.06.09-.27c0-.07-.16-.02-.24-.03h-.56s-2.25.05-2.25.05c-3,.05-5.98.1-8.97.15-1.5.03-3.02.07-4.49.07l-3.56.02c-1.58.01-3.15-.02-4.72-.03-6.28-.08-12.48-.26-18.59-.64-12.22-.71-24.07-1.98-35.4-3.69-2.83-.41-5.63-.89-8.39-1.35l-1.57-.28-.4-.06-.84-.14c-.58-.1-1.16-.21-1.73-.31-.14-.03-.32-.02-.4-.16-.08-.14,0-.29.13-.34l.67-.44c.4-.27.82-.56,1.27-.84l.68-.43.22-.14.78-.46,1.56-.92c4.2-2.37,8.38-4.78,12.66-7.05,8.51-4.6,17.18-8.99,26-13.08,8.82-4.11,17.75-8.02,26.82-11.59,2.26-.93,4.54-1.79,6.82-2.65,2.28-.86,4.55-1.76,6.85-2.56l6.89-2.47,8.16-2.74c-2.58.8-5.14,1.6-7.67,2.38-2.11.69-4.21,1.37-6.27,2.05-4.15,1.32-8.14,2.8-12.06,4.14-7.79,2.85-15.13,5.63-21.86,8.43,9.13-3.93,18.36-7.62,27.36-10.85,2.24-.84,4.47-1.62,6.68-2.37,2.21-.75,4.38-1.54,6.54-2.23,2.6-.84,5.16-1.67,7.67-2.48,1.58-.5,3.19-.98,4.81-1.44,1.61-.47,3.19-.93,4.76-1.38,1.57-.46,3.12-.91,4.65-1.35.75-.22,1.56-.44,2.24-.66.49-.22.98-.43,1.46-.64,1.93-.85,3.81-1.68,5.63-2.48.45-.2.91-.4,1.35-.6l.66-.29.36-.2c.47-.27.94-.53,1.4-.78.92-.51,1.81-1,2.66-1.48.21-.12.43-.22.62-.36.19-.19.25-.72.13-1.11-.06-.2-.15-.36-.26-.44-.1-.08-.21-.07-.31-.09-.21-.03-.41-.07-.61-.1-.82-.16-1.56-.21-2.34-.42-.8-.21-1.55-.42-2.24-.6-.32-.07-.75-.23-1.14-.36-.4-.13-.77-.26-1.13-.38-.47-.16-.94-.33-1.38-.48l-.33-.12c-.08-.04-.33-.08-.48-.12-.35-.08-.68-.16-1.01-.23-1.31-.3-2.42-.55-3.17-.72-2.28-.05-4.05-.26-5.92-.41-.92-.08-1.83-.16-2.73-.24-.88-.09-1.82-.13-2.56-.27-1.56-.24-3.07-.47-4.54-.69-.73-.11-1.46-.22-2.17-.33-.69-.13-1.37-.26-2.05-.39-1.05-.21-2.08-.42-3.07-.62-.86-.16-1.68-.37-2.48-.55-1.6-.37-3.11-.69-4.51-1.07-5.62-1.39-9.67-2.68-12.49-3.51-5.6-1.78-6.27-1.83-3.84-.75,2.42,1.1,7.95,3.27,14.86,5.4.87.26,1.75.53,2.65.81.91.25,1.83.5,2.77.76.94.25,1.88.53,2.85.75,1.05.25,2.1.51,3.17.76,2.32.53,4.65.95,6.9,1.41,1.16.18,2.32.36,3.47.54,1.13.18,2.22.36,3.37.48.72.14,1.38.27,2.04.39.7.12,1.36.24,1.96.34.54.09,1.05.17,1.51.24.91.15,1.66.27,2.28.36,1.2.15,1.83.21,2.11.27.55.1-.26.1-.89.15-.76.07-1.05.17.77.35.48.02,1.06.05,1.78.09.37.01.78.03,1.22.05.22.01.46,0,.7.03.25.03.47.27.47.59.02.3-.19.66-.55.77-.35.1-.72.18-1.1.27-.75.18-1.54.38-2.4.58-1.64.41-3.51.87-5.61,1.39l6.56-1.72,1.64-.43c.28-.04.53-.25.59-.54.06-.28-.06-.59-.31-.73-.25-.14-.55-.07-.83-.1h-.84s-1.68-.04-1.68-.04c-4.49-.12-8.99-.4-13.46-1.01-2.61-.34-5.22-.73-7.81-1.23-1.3-.22-2.6-.49-3.89-.77-1.45-.31-2.94-.62-4.39-.99-5.85-1.4-11.63-3.09-17.32-5.04-.73-.16,3.46,1.41,10.13,3.33,3.34.93,7.31,1.98,11.56,2.85,3.65.79,7.59,1.44,11.49,1.94,4.14.55,8.26.79,11.92.96.91.01,1.8.03,2.66.04.43,0,.84.01,1.25.02.2.01.41-.01.6.04.19.05.35.21.41.4.15.38-.12.83-.51.89-.37.1-.73.19-1.08.28-.71.18-1.37.35-1.99.51-4.99,1.26-6.89,1.67-3.81.69,1.81-.47,3.65-.94,5.5-1.42.49-.16.55-.89.12-1.13-.2-.12-.45-.08-.68-.09h-.7c-.93-.02-1.87-.04-2.81-.05-3.77-.16-7.65-.41-11.53-.91-3.62-.46-7.25-1.04-10.83-1.8-4.35-.87-8.78-2.02-13.1-3.24-8.66-2.51-17.12-5.56-25.12-9.06,2.2,1.14,9.31,4.33,18.8,7.48,4.74,1.57,10.07,3.17,15.65,4.47.69.18,1.4.34,2.1.48l1.94.42c1.04.24,2.1.43,3.15.62,2.1.41,4.2.71,6.26.99,3.61.5,7.1.71,10.23.85.78.01,1.54.03,2.28.04.37,0,.73.01,1.08.02.38-.05.67.36.56.71-.05.17-.18.32-.35.38-.17.06-.35.09-.52.14-.34.09-.68.17-1.01.26-.66.17-1.29.33-1.89.48-4.83,1.18-7.61,1.95-7.37,1.72.96-.28,2.26-.68,3.88-1.09,1.61-.44,3.55-.87,5.66-1.49.23-.16.29-.5.15-.73-.14-.27-.45-.24-.7-.24-.53-.01-1.07-.02-1.61-.03-1.1,0-2.24-.07-3.41-.14-2.35-.13-4.84-.39-7.39-.74-.89-.1-1.78-.27-2.68-.41-.9-.14-1.8-.29-2.7-.47-.91-.18-1.81-.35-2.7-.53-1.06-.23-2.11-.47-3.14-.69-4.88-1.15-9.5-2.37-13.53-3.63-8.08-2.45-13.89-4.7-15.39-5.03-.5-.14,5.48,2.38,13.4,4.89,3.97,1.22,8.39,2.54,12.7,3.54,1.07.27,2.13.53,3.18.74.84.18,1.65.35,2.45.52,1.32.25,2.56.48,3.66.68-.85-.15-1.69-.3-2.53-.45-.42-.07-.83-.15-1.25-.24l-1.29-.27c-2.48-.49-4.89-1.11-7.27-1.67-4.73-1.24-9.27-2.54-13.56-3.98-8.61-2.83-16.29-6.02-23.02-9.06-13.44-6.14-23.08-11.67-28.46-14.65-5.36-3.01-6.46-3.53-2.25-.73,2.12,1.38,5.59,3.57,10.64,6.5,5.06,2.93,11.7,6.61,20.31,10.68-12.04-5.49-25.95-13.28-39.44-21.91-13.52-8.6-26.72-17.89-38.04-25.7.02.02.12.09.16.13,5.63,3.93,13.29,9.33,20.95,14.54,7.64,5.23,15.33,10.22,20.77,13.58-13.39-8.27-26.33-17.22-39.15-26.15,1.97,1.48,4.2,3.16,6.55,4.93,9.57,6.71,19.27,13.42,29.69,19.94-8.85-5.55-17.51-11.38-26.11-17.29,6.28,4.62,13.59,9.86,21.81,15.38,15.58,10.27,31.54,19.55,46.51,26.26,14.92,6.79,28.69,11.01,38.85,13.15l1.06.23.68.12c.47.07.92.11,1.35.13h.32c.05,0,.12.04.09.1-.02.06-.11.06-.16.08l-.73.18-1.35.36c-.91.27,1.09-.39-5.56,1.76-9.43,3.16-18.78,6.56-28.03,10.22-9.24,3.7-18.37,7.66-27.39,11.86-9.02,4.21-17.89,8.73-26.66,13.45l-6.54,3.59-3.64,2.08c-2.06,1.2-4.19,2.38-6.18,3.59-5.03,2.52-5.55,4.58-7.56,6.8l-2.64,3.29-.66.82c-.08.2-.04.52-.02.92.06.81.31,1.75.53,2.05l2.14,2.49,1.07,1.25c.09.1.17.21.27.31l.8.21,1.61.42,6.43,1.68,1.61.42c.55.13,1.15.24,1.73.36,1.16.23,2.32.47,3.51.69l4.98.92,3.7.63c2.46.44,4.94.79,7.4,1.18,9.89,1.49,19.83,2.56,29.8,3.3,4.99.37,9.98.62,14.97.81,2.5.06,5,.17,7.5.18l3.75.05h2.53s.26,0,.26,0c.02,0,.05,0,.05,0l-.02.06-.05.12-.04.12-.89,2.57-2.4,6.96-7.57,21.91c-.03.06-.06.12-.13.12-.05-.03-.07-.11-.1-.16l-1.01-2.08-1.53-3.16c-.5-1.06-1.05-2.09-1.47-3.2l-2.7-6.53c-.47-1.08-.86-2.2-1.25-3.32l-1.18-3.35-1.18-3.35c-.38-1.12-.7-2.28-1.06-3.41-.68-2.28-1.4-4.55-2.06-6.85-2.54-9.23-4.7-18.62-6.66-28.13-1.93-9.53-3.73-19.13-5.62-28.81-.46-2.41-.97-4.84-1.46-7.26-.5-2.42-.96-4.84-1.52-7.27l-1.6-7.28-2.53-10.35Z"/>
      <g>
        <g>
          <path class="cls-1" d="M298.69,178.91c6.8,5.59,14.52,10.23,19.6,17.48l-6.48,1.98c-.29,1.89,2,1.46,3.28,2.55,5.99,5.12-3.18,4.41-7.81,3.98-7.47-.7-16.73-5.96-22.81-10.3-10.88-7.77-22.52-19.77-33.34-28.44-1.1-.88-6.35-4.85-7.16-3.88-2.25,5.04-8.59,39.14-10.26,40.4-.61.46-2.95-1.5-3.94-.73-1.83,1.42-1.03,7.14-7.54-.05-7.56-8.36-2.29-21.5.6-31.39,4.8-16.47,12.29-32.61,17.02-49.17,0-1.68-7.8,2.05-9.77,2.06-7.8.03-11-9.28-7.3-15.07,2.07-3.24,20.99-12.89,25.56-14.84,12.11-5.16,25-9.52,37.76-4.52,20.87,8.18,15.65,28.73,2.61,41.88l-23.98,18.97c3.35,3.13,6.38,6.65,9.81,9.69,7.65,6.79,16.26,12.91,24.16,19.41ZM282.7,107.43c-2.96-2.72-20.12-.05-20.35,3.31-.06.91.87,2.23.59,3.61-.57,2.85-5.96,15.42-4.84,16.63.82.87,8.14-4.48,9.51-5.47,2.5-1.8,18.61-14.83,15.08-18.07Z"/>
          <path class="cls-3" d="M274.16,86.75c3.97,0,7.96.65,11.94,2.21,20.87,8.18,15.65,28.73,2.61,41.88l-23.98,18.97c3.35,3.13,6.38,6.65,9.81,9.69,7.65,6.79,16.26,12.91,24.16,19.41,6.8,5.59,14.52,10.23,19.6,17.48l-6.48,1.98c-.29,1.89,2,1.46,3.28,2.55,4.1,3.51,1.09,4.28-2.69,4.28-1.75,0-3.66-.16-5.12-.3-7.47-.7-16.73-5.96-22.81-10.3-10.88-7.77-22.52-19.77-33.34-28.44-.98-.78-5.27-4.03-6.76-4.03-.18,0-.32.05-.4.15-2.25,5.04-8.59,39.14-10.26,40.4-.07.05-.15.07-.25.07-.69,0-2.11-.98-3.09-.98-.23,0-.43.05-.59.18-1.15.89-1.26,3.5-2.81,3.5-.91,0-2.32-.89-4.72-3.55-7.56-8.36-2.29-21.5.6-31.39,4.8-16.47,12.29-32.61,17.02-49.17,0-.31-.26-.43-.7-.43-1.96,0-7.46,2.49-9.07,2.49-.01,0-.03,0-.04,0-7.78,0-10.96-9.29-7.26-15.07,2.07-3.24,20.99-12.89,25.56-14.84,8.34-3.55,17.04-6.73,25.82-6.73M258.4,131.07c1.59,0,7.96-4.65,9.22-5.56,2.5-1.8,18.61-14.83,15.08-18.07-.85-.79-2.89-1.12-5.37-1.12-6.09,0-14.82,2.04-14.98,4.43-.06.91.87,2.23.59,3.61-.57,2.85-5.96,15.42-4.84,16.63.06.07.16.1.29.1M274.16,83.75v3-3h0c-9.36,0-18.51,3.35-27,6.97-1.86.79-23.94,11.35-26.91,15.98-2.56,4-2.7,9.35-.36,13.63,2.11,3.85,5.81,6.06,10.14,6.06,1.25,0,2.69-.48,5.13-1.31.15-.05.31-.1.47-.16-2.16,6.86-4.74,13.74-7.25,20.42-2.98,7.93-6.05,16.13-8.44,24.33-.31,1.07-.65,2.18-1,3.31-3.04,9.9-6.82,22.23,1.06,30.94,2.92,3.22,4.93,4.54,6.95,4.54,2.58,0,3.73-2,4.32-3.24.65.28,1.37.54,2.18.54.76,0,1.47-.23,2.06-.67,1.49-1.12,2.1-2.85,6.36-21.98,1.33-5.98,2.91-13.07,4-17.01,1.09.7,2.4,1.63,3.38,2.41,4.51,3.61,9.28,7.92,13.91,12.09,6.46,5.83,13.15,11.86,19.57,16.45,4.15,2.97,14.83,9.96,24.28,10.85,1.66.16,3.6.31,5.4.31s6.23,0,7.42-3.2c.83-2.25-.57-4.21-1.74-5.4l1.1-.34c.92-.28,1.65-.98,1.96-1.89s.17-1.91-.38-2.7c-4.01-5.72-9.46-9.85-14.73-13.85-1.8-1.37-3.67-2.78-5.42-4.22-3.17-2.6-6.49-5.18-9.7-7.67-4.84-3.75-9.84-7.63-14.38-11.66-1.81-1.61-3.49-3.34-5.27-5.17-.65-.67-1.32-1.36-1.99-2.04l21.3-16.86c.09-.07.18-.15.27-.24,9.28-9.36,13.82-21,11.84-30.38-1.09-5.14-4.65-12.16-15.48-16.4-4.09-1.6-8.47-2.41-13.03-2.41h0ZM265.6,111.51c1.93-.99,7.07-2.2,11.73-2.2,1.18,0,1.99.08,2.53.17-1.79,3.26-9.82,10.58-13.99,13.58l-.23.16c-1.34.97-2.45,1.74-3.37,2.36.55-1.62,1.16-3.3,1.6-4.52,1.1-3.04,1.79-4.97,2.02-6.14.27-1.36-.02-2.55-.28-3.42h0Z"/>
        </g>
        <g>
          <path class="cls-1" d="M316.9,176.21c.54-3.89,2.45-8.63,2.59-12.41.39-10.09-1.07-12.64,1.77-24.05,1.2-4.84,12.23-35.15,10.87-36.48-1.13-1.1-14.34,5.68-18.55,5.08-4.63-.66-13.12-9.63-10.83-14.04.8-1.55,3.08-2.48,4.6-3.27,6.72-3.48,29.14-8.68,32.48-11.87,1.78-1.69,5.05-14.26,5.82-17.54,1.16-4.94.33-21.04,9.61-16.39,9.64,4.83,5.49,26.77,6.65,27.96,1.14,1.19,23.91-3.73,27.99-4.07,1.94-.16,3.89.06,5.82-.01,2.15-.08,10.93-.45,11.72-.05.14.07-.07.86,0,1.29-1.04.24-2.36-.64-2.6.67-.49,2.65.53,1.83,2.62,1.93,1.3.06,2.61-.09,3.9-.02.18,4.6.81,3.62-3.22,3.88-2.44.16-4.51-.05-6.9.98-1.61.7-1.44,2.39-1.87,2.64-2.16,1.29-12.27,4.88-16.56,6.96-8.78,4.25-18.35,4.18-26.6,9.27-8.42,25.79-17.62,52.17-19.78,79.45-.07.86.06,1.74.01,2.6-.28,4.83-.89,9.89-1.23,14.32l-2.6-1.72c-4.24,3.29-2.26,7.16-2.55,12.15-11.22-8.22-11.68-14.34-13.16-27.26Z"/>
          <path class="cls-3" d="M352.25,44.39c.86,0,1.86.26,3,.83,9.64,4.83,5.49,26.77,6.65,27.96.12.13.49.18,1.06.18,4.75,0,23.28-3.95,26.93-4.26.54-.05,1.08-.06,1.63-.06,1.11,0,2.21.06,3.31.06.29,0,.59,0,.88-.02,1.42-.06,5.75-.23,8.74-.23,1.53,0,2.71.05,2.98.18.14.07-.07.86,0,1.29-.14.03-.28.04-.42.04-.45,0-.91-.11-1.3-.11-.43,0-.77.14-.88.74-.31,1.71,0,1.98.81,1.98.37,0,.85-.06,1.43-.06.12,0,.24,0,.37,0,.23.01.46.01.69.01.82,0,1.65-.05,2.47-.05.25,0,.5,0,.75.02.18,4.6.81,3.62-3.22,3.88-2.44.16-4.51-.05-6.9.98-1.61.7-1.44,2.39-1.87,2.64-2.16,1.29-12.27,4.88-16.56,6.96-8.78,4.25-18.35,4.18-26.6,9.27-8.42,25.79-17.62,52.17-19.78,79.45-.07.86.06,1.74.01,2.6-.28,4.83-.89,9.89-1.23,14.32l-2.6-1.72c-4.24,3.29-2.26,7.16-2.55,12.15-11.22-8.22-11.68-14.34-13.16-27.26.54-3.89,2.45-8.63,2.59-12.41.39-10.09-1.07-12.64,1.77-24.05,1.2-4.84,12.23-35.15,10.87-36.48-.08-.08-.24-.12-.45-.12-2.49,0-13.16,5.24-17.52,5.24-.21,0-.41-.01-.59-.04-4.63-.66-13.12-9.63-10.83-14.04.8-1.55,3.08-2.48,4.6-3.27,6.72-3.48,29.14-8.68,32.48-11.87,1.78-1.69,5.05-14.26,5.82-17.54,1.02-4.33.51-17.23,6.61-17.23M352.25,41.39c-7.38,0-8.37,9.49-9.03,15.76-.16,1.52-.31,2.95-.5,3.78-1.26,5.37-3.88,14.43-5.04,16.12-1.62,1.33-10.21,3.98-15.92,5.75-6.46,2-12.56,3.89-15.8,5.57-.21.11-.43.22-.66.33-1.72.86-4.08,2.03-5.22,4.22-.79,1.53-1.33,4.16.62,7.95,2.33,4.52,7.88,9.8,12.45,10.45.32.05.66.07,1.01.07,3.03,0,7.57-1.7,11.96-3.35.75-.28,1.61-.6,2.42-.9-1.42,5.26-4.65,14.91-6.6,20.73-1.77,5.29-3.17,9.47-3.59,11.16-2.05,8.26-1.96,12.17-1.84,17.13.05,2.1.11,4.49-.01,7.53-.07,1.82-.69,4.15-1.29,6.4-.5,1.9-1.02,3.86-1.28,5.71-.03.25-.04.5,0,.75l.1.86c1.44,12.68,2.24,19.66,14.26,28.47.52.38,1.15.58,1.77.58.43,0,.87-.09,1.28-.29.99-.47,1.65-1.44,1.72-2.54.09-1.57-.01-3-.1-4.27-.14-1.97-.19-3.17.19-4.11l.41.27c.5.33,1.08.5,1.65.5.45,0,.9-.1,1.32-.31.95-.47,1.59-1.41,1.67-2.47.13-1.76.31-3.61.5-5.57.28-2.89.56-5.87.73-8.81.03-.56.01-1.08,0-1.54-.02-.38-.03-.73,0-1,1.97-24.93,10.01-49.41,17.78-73.08.5-1.53,1.01-3.07,1.51-4.6,3.89-2.18,8.16-3.25,12.66-4.39,4.18-1.05,8.51-2.14,12.75-4.2,1.97-.96,5.31-2.28,8.54-3.55,4.29-1.7,6.99-2.78,8.25-3.53,1.13-.67,1.46-1.75,1.65-2.32.02-.07.05-.15.07-.22,1.26-.5,2.48-.54,4.02-.59.55-.02,1.11-.04,1.69-.07.63-.04,1.12-.05,1.56-.05,1.19-.02,2.55-.03,3.63-1.21,1.11-1.2,1.02-2.62.92-4.11-.03-.44-.06-.97-.09-1.61-.06-1.55-1.29-2.8-2.85-2.88-.3-.02-.6-.02-.9-.02-.05,0-.11,0-.16,0,.21-2.12-.78-3.09-1.65-3.54-.7-.36-1.46-.5-4.33-.5s-6.84.16-8.55.23h-.31c-.25.02-.51.03-.76.03-.52,0-1.04-.02-1.57-.03-.58-.02-1.16-.03-1.75-.03-.69,0-1.31.02-1.88.07-1.57.13-5.15.79-9.68,1.62-5.07.93-11.69,2.14-15.27,2.51.01-.46.03-.95.04-1.4.25-7.64.73-21.87-8.14-26.31-1.52-.76-2.99-1.15-4.35-1.15h0Z"/>
        </g>
        <g>
          <path class="cls-1" d="M212.15,51.84c1.32,2.55,2.91,15.58,2.77,18.91-.45,10.47-2.31,23.89-3.79,34.44-.6,4.26-2.97,10.21-3.7,15.11-.55,3.72-3.55,26.85-2.58,27.86.39.41,8.73-2.47,11.04-2.67,2.09-.18,3.79-.74,3.28,1.96l-7.71,14.38-10.49,5.38c-1.07,18.88-3.23,37.48-2.25,56.46-2.28.68-.64-3.16-1.95-2.58-2.5,1.09-.93,6.57-3.86,5.21-.65-.3-4.62-3.3-5.18-3.93-5.77-6.48-6.68-32.03-6.15-40.91.27-4.49,4.19-9.15-1.9-8.37-6.87.88-25.76,8.29-33.17,11.2-8.8,3.45-13.94,3.93-18.42,12.84-5.31,10.57-16.15,34.47-19.03,45.24-11.19-.32-11.98-13.67-10.53-22.07.4-2.29,7.05-15.08,6.42-15.64s-9.53,3.97-11.63,4.68c-2.39.81-5.12.16-6.56.61-1.93-6.49-10.86-5.23-3.99-13.33,8.47-9.99,23.31-15.53,34.35-22,19.9-36.72,40.01-75.44,63.31-109.51,4.46-6.52,9.51-12.74,13.7-19.44,3.55-.74,7.56-.42,10.93.92,1.22.49,6.81,4.69,7.1,5.25ZM147.01,164.07l35.45-12.16c2.04-2,2.29-16.94,2.9-21.08,1.13-7.57,2.33-15.4,3.65-22.92.05-.26.97-.99,1.16-2.09,2.24-13.28,3.28-16.8-6.98-4.32-18.48,22.47-36.18,62.57-36.18,62.57Z"/>
          <path class="cls-3" d="M197.98,45.28c2.42,0,4.88.44,7.06,1.31,1.22.49,6.81,4.69,7.1,5.25,1.32,2.55,2.91,15.58,2.77,18.91-.45,10.47-2.31,23.89-3.79,34.44-.6,4.26-2.97,10.21-3.7,15.11-.55,3.72-3.55,26.85-2.58,27.86.03.03.09.04.18.04,1.29,0,8.7-2.53,10.86-2.71.73-.06,1.41-.17,1.97-.17,1.04,0,1.64.38,1.31,2.13l-7.71,14.38-10.49,5.38c-1.07,18.88-3.23,37.48-2.25,56.46-.19.06-.35.08-.49.08-1.43,0-.44-2.72-1.23-2.72-.07,0-.14.02-.23.06-2.22.97-1.23,5.43-3.05,5.43-.22,0-.49-.07-.81-.22-.65-.3-4.62-3.3-5.18-3.93-5.77-6.48-6.68-32.03-6.15-40.91.25-4.16,3.62-8.45-.7-8.45-.35,0-.75.03-1.2.09-6.87.88-25.76,8.29-33.17,11.2-8.8,3.45-13.94,3.93-18.42,12.84-5.31,10.57-16.15,34.47-19.03,45.24-11.19-.32-11.98-13.67-10.53-22.07.4-2.29,7.05-15.08,6.42-15.64-.04-.03-.1-.05-.19-.05-1.45,0-9.46,4.06-11.44,4.73-1.14.39-2.37.44-3.49.44-.43,0-.84,0-1.23,0-.72,0-1.35.03-1.83.18-1.93-6.49-10.86-5.23-3.99-13.33,8.47-9.99,23.31-15.53,34.35-22,19.9-36.72,40.01-75.44,63.31-109.51,4.46-6.52,9.51-12.74,13.7-19.44,1.25-.26,2.55-.39,3.86-.39M147.01,164.07l35.45-12.16c2.04-2,2.29-16.94,2.9-21.08,1.13-7.57,2.33-15.4,3.65-22.92.05-.26.97-.99,1.16-2.09,1.29-7.63,2.18-12.04.75-12.04-1.05,0-3.37,2.41-7.74,7.72-18.48,22.47-36.18,62.57-36.18,62.57M197.98,42.28h0c-1.53,0-3.03.15-4.47.45-.8.17-1.5.65-1.93,1.34-2.45,3.91-5.27,7.75-8,11.47-1.87,2.55-3.81,5.19-5.64,7.86-20.31,29.7-38.23,62.97-55.57,95.14-2.51,4.65-5.01,9.29-7.5,13.9-2.73,1.57-5.67,3.08-8.77,4.68-9.38,4.83-19.08,9.83-25.63,17.55-2.47,2.91-3.46,5.19-3.24,7.38.27,2.62,2.18,4.09,3.71,5.28,1.33,1.03,2.47,1.92,2.93,3.45.23.77.75,1.41,1.46,1.79.44.23.93.35,1.41.35.3,0,.6-.04.89-.14.05-.01.28-.04.94-.04.18,0,.37,0,.56,0,.22,0,.45,0,.68,0,1.33,0,2.89-.07,4.45-.6.84-.29,2.21-.9,4.36-1.89.33-.15.71-.33,1.12-.51-.26.56-.51,1.1-.73,1.59-2.23,4.84-3.23,7.1-3.46,8.42-.56,3.23-1.96,14.28,3.47,20.91,2.4,2.94,5.84,4.55,9.93,4.67.03,0,.06,0,.09,0,1.35,0,2.55-.91,2.9-2.22,2.88-10.77,13.86-34.79,18.82-44.67,3.22-6.42,6.43-7.58,12.81-9.89,1.27-.46,2.58-.93,4.02-1.5l.09-.04c6.96-2.73,25.27-9.91,32.04-10.93-.06.19-.11.37-.16.53-.39,1.31-.88,2.93-.98,4.63-.33,5.45-.43,34.84,6.91,43.09.81.91,5.13,4.17,6.15,4.65.72.33,1.4.5,2.08.5,2.2,0,3.25-1.47,3.79-2.83.3.06.56.07.73.07.43,0,.89-.07,1.34-.21,1.33-.4,2.21-1.65,2.14-3.03-.72-13.86.29-27.87,1.26-41.41.31-4.26.62-8.64.88-13.01l8.96-4.59c.54-.28.99-.71,1.28-1.25l7.71-14.38c.15-.27.25-.56.31-.87.12-.66.5-2.65-.81-4.22-.81-.97-1.97-1.46-3.45-1.46-.53,0-1.05.06-1.55.11-.22.02-.44.05-.68.07-1.31.11-3.46.71-6.59,1.61-.41.12-.87.25-1.32.38.37-6.01,1.98-19.04,2.67-23.74.34-2.3,1.11-4.98,1.86-7.58.78-2.71,1.52-5.26,1.84-7.56,1.33-9.49,3.34-23.84,3.81-34.73.14-3.25-1.38-17.11-3.1-20.43-.89-1.71-7.54-6.21-8.65-6.66-2.5-.99-5.32-1.52-8.17-1.52h0ZM152.68,158.95c5.75-12.13,19.17-38.94,32.83-55.54.99-1.2,1.83-2.2,2.54-3.03-.16.96-.33,1.97-.5,2.98l-.32,1.9c-.05.09-.19.27-.28.37-.29.37-.74.92-.89,1.76-1.36,7.7-2.57,15.61-3.67,23-.2,1.33-.35,3.53-.53,6.08-.25,3.54-.73,10.57-1.49,12.98l-27.7,9.5h0Z"/>
        </g>
      </g>
    </g>
  </g>
</svg>