<?xml version="1.0" encoding="UTF-8"?>
<svg id="Layer_2" data-name="Layer 2" xmlns="http://www.w3.org/2000/svg" viewBox="0 0 512 512">
  <defs>
    <style>
      .cls-1 {
        fill: #f2f1f0;
      }

      .cls-2 {
        fill: #ed1474;
      }

      .cls-3 {
        fill: #181819;
      }

      .cls-4 {
        fill: #ed1775;
      }
    </style>
  </defs>
  <g id="Layer_1-2" data-name="Layer 1">
    <g>
      <rect class="cls-3" width="512" height="512"/>
      <g>
        <path class="cls-2" d="M239.3,392.67c3.08-9.41,5.1-19.13,6.03-28.98l.2-2.13c.37-3.66,1.33-8.09,2.11-11.75,3.62-17.02,11.54-39.47,17.34-56.31,10.04-29.11,23.18-57.2,33.33-86.29.44-3.19-.04-3.86-3.29-3.25-4.11.78-14.13,8.07-19.26,14.1-2.36,2.77-5.15,5.13-8.35,6.86-6.57,3.56-9.6,12.21-16.05,16.77,8.82.12-.51,11.6-4.29,14.91-5.98,5.24-14.59,4.37-20.12-1.01-21.51-20.94-3.58-40.8,13.43-56.71,10.13-9.48,28.83-24.06,40.56-31.21,24.4-14.88,70.88-35.23,99.35-36.97,18.54-1.13,45.3,8.65,54.71,25.46,23.15,41.35-22.37,87.22-51.89,111.56-8.91,7.34-22.06,14.02-29.86,21.55-1.67,1.62-3.31,2.75-3.27,5.41,26.31,35.4,49.29,73.12,73.48,109.85-1.37-.18-3.05.29-4.28.02-1.78-.39-3.07-3.09-4.26-1.06l15.05,18.13c1.35,2.25,7.76,9.24,10.75,8.51,2.2,4.13,4.34,8.76,6.49,12.81-11.2-.17-14.68-11.44-21.45-18.13-6.54-6.46-14.46-10.99-20.49-18.01-.73,2.79,3.29,4.95,4.88,7.96.71,1.33,2.51,5.49,1.65,6.93-49.61-24.22-76.42-77.66-109.82-119.24-2.59-.03-11.25,31.42-12.66,36.42-2.95,10.42-4.57,22.33-7.31,32.16-4.59,16.42-11.71,33.48-14.73,49.31-.66,3.44-1.63,14.39-2.07,15.01-.18.26-6.24.31-6.41.04-.96-1.52,2.03-7.08-2.16-6.42-.67,4.04-1.61,15.39-5.28,17.14-2.87,1.37,3.2-16.74-7.53-8.52,1.51-1.76,4.84-6.51,5.44-8.46.51-1.66,3.01-13.34,3.01-14.06l-.19-35.32c-2.98-.48-2.96,3.64-3.72,5.89-2.26,6.79-2.35,19.18-11.13,19.87,1.01-4.7,1.85-7.81,2.07-12.85h0ZM319.99,265.94c1.56,1.65,8.49-4.28,10.45-5.62,19.98-13.6,59.82-51.33,63.6-75.54,3.93-25.17-36.44-12.88-49.44-8.4-4.63,1.6-35.72,15.64-35.67,17.91.02,1.14,14.14,10.33,17.22,14.85,13.06,19.12-9.78,52.98-6.16,56.8Z"/>
        <g>
          <path class="cls-1" d="M286.78,81.54c2.18,4.19,4.79,25.63,4.55,31.11-.74,17.23-3.8,39.31-6.23,56.66-.98,7.01-4.89,16.8-6.08,24.86-.9,6.12-5.84,44.17-4.24,45.83.65.67,14.36-4.07,18.16-4.39,3.44-.3,6.23-1.21,5.4,3.23l-12.69,23.65-17.25,8.84c-1.76,31.06-5.31,61.65-3.69,92.88-3.76,1.12-1.06-5.2-3.21-4.25-4.11,1.8-1.54,10.81-6.36,8.57-1.07-.5-7.61-5.44-8.52-6.46-9.49-10.66-11-52.7-10.12-67.3.44-7.39,6.89-15.05-3.13-13.76-11.31,1.45-42.37,13.64-54.57,18.42-14.49,5.68-22.94,6.46-30.3,21.12-8.73,17.39-26.57,56.71-31.31,74.42-18.41-.52-19.71-22.49-17.32-36.3.65-3.78,11.61-24.8,10.57-25.73-1.03-.92-15.67,6.52-19.14,7.7-3.92,1.33-8.42.27-10.79,1.01-3.17-10.68-17.86-8.6-6.57-21.92,13.93-16.43,38.35-25.56,56.51-36.2,32.74-60.4,65.83-124.11,104.15-180.16,7.34-10.73,15.64-20.96,22.54-31.97,5.84-1.21,12.44-.69,17.97,1.51,2.01.8,11.2,7.72,11.68,8.64ZM179.63,266.17l58.32-20c3.35-3.28,3.76-27.86,4.78-34.67,1.86-12.45,3.83-25.33,6.01-37.7.08-.43,1.6-1.63,1.9-3.43,3.68-21.85,5.39-27.64-11.49-7.11-30.4,36.96-59.52,102.93-59.52,102.93Z"/>
          <path class="cls-4" d="M263.48,70.75c3.99,0,8.03.72,11.62,2.15,2.01.8,11.2,7.72,11.68,8.64,2.18,4.19,4.79,25.63,4.55,31.11-.74,17.23-3.8,39.31-6.23,56.66-.98,7.01-4.89,16.8-6.08,24.86-.9,6.12-5.84,44.17-4.24,45.83.04.04.14.07.29.07,2.12,0,14.32-4.15,17.87-4.46,1.2-.1,2.33-.28,3.24-.28,1.71,0,2.7.62,2.16,3.51l-12.69,23.65-17.25,8.84c-1.76,31.06-5.31,61.65-3.69,92.88-.31.09-.57.13-.8.13-2.35,0-.73-4.48-2.03-4.48-.11,0-.23.03-.38.1-3.66,1.6-2.02,8.93-5.02,8.93-.37,0-.81-.11-1.34-.36-1.07-.5-7.61-5.44-8.52-6.46-9.49-10.66-11-52.7-10.12-67.3.41-6.84,5.96-13.9-1.15-13.9-.57,0-1.23.05-1.98.14-11.31,1.45-42.37,13.64-54.57,18.42-14.49,5.68-22.94,6.46-30.3,21.12-8.73,17.39-26.57,56.71-31.31,74.42-18.41-.52-19.71-22.49-17.32-36.3.65-3.78,11.61-24.8,10.57-25.73-.06-.05-.17-.08-.31-.08-2.38,0-15.56,6.67-18.82,7.78-1.88.64-3.9.73-5.74.73-.71,0-1.39-.01-2.03-.01-1.18,0-2.22.04-3.01.29-3.17-10.68-17.86-8.6-6.57-21.92,13.93-16.43,38.35-25.56,56.51-36.2,32.74-60.4,65.83-124.11,104.15-180.16,7.34-10.73,15.64-20.96,22.54-31.97,2.05-.43,4.19-.64,6.35-.64M179.63,266.17l58.31-20c3.35-3.28,3.76-27.86,4.78-34.67,1.86-12.45,3.83-25.33,6.01-37.7.08-.43,1.6-1.63,1.9-3.43,2.12-12.56,3.58-19.81,1.24-19.81-1.73,0-5.55,3.97-12.73,12.69-30.4,36.96-59.52,102.93-59.52,102.93M263.48,65.81h0c-2.52,0-4.99.25-7.36.74-1.32.27-2.47,1.07-3.18,2.21-4.03,6.43-8.67,12.76-13.16,18.87-3.08,4.2-6.27,8.55-9.27,12.93-33.4,48.86-62.89,103.59-91.41,156.52-4.13,7.66-8.23,15.28-12.34,22.86-4.49,2.58-9.33,5.07-14.43,7.7-15.43,7.95-31.38,16.16-42.16,28.88-4.06,4.79-5.7,8.53-5.32,12.14.45,4.3,3.58,6.74,6.1,8.69,2.18,1.69,4.07,3.16,4.82,5.68.38,1.27,1.24,2.33,2.41,2.95.72.39,1.52.58,2.33.58.49,0,.99-.07,1.46-.22.09-.02.46-.07,1.55-.07.3,0,.6,0,.92,0,.36,0,.73,0,1.11,0,2.18,0,4.76-.12,7.33-.99,1.38-.47,3.63-1.49,7.18-3.11.55-.25,1.17-.54,1.84-.84-.42.92-.83,1.81-1.2,2.62-3.67,7.97-5.32,11.69-5.7,13.85-.92,5.31-3.22,23.48,5.7,34.4,3.95,4.83,9.6,7.49,16.34,7.68.05,0,.09,0,.14,0,2.23,0,4.19-1.5,4.77-3.66,4.74-17.72,22.8-57.24,30.96-73.48,5.31-10.56,10.58-12.47,21.07-16.27,2.09-.76,4.25-1.54,6.62-2.47l.15-.06c11.46-4.49,41.58-16.3,52.71-17.98-.09.31-.18.61-.26.88-.65,2.15-1.45,4.82-1.62,7.62-.53,8.96-.71,57.32,11.36,70.88,1.34,1.5,8.43,6.87,10.12,7.65,1.18.55,2.3.82,3.42.82,3.61,0,5.34-2.41,6.23-4.65.49.09.91.11,1.2.11.71,0,1.46-.11,2.21-.34,2.18-.65,3.64-2.71,3.52-4.98-1.18-22.8.48-45.84,2.08-68.12.5-7,1.02-14.21,1.45-21.4l14.74-7.56c.89-.46,1.62-1.18,2.1-2.06l12.69-23.65c.24-.45.41-.93.5-1.43.2-1.08.82-4.36-1.33-6.94-1.33-1.6-3.24-2.41-5.68-2.41-.87,0-1.72.09-2.55.19-.36.04-.73.08-1.11.11-2.16.19-5.69,1.17-10.84,2.64-.68.19-1.42.41-2.17.62.61-9.89,3.26-31.32,4.4-39.06.56-3.79,1.83-8.2,3.06-12.47,1.28-4.45,2.5-8.66,3.03-12.43,2.19-15.62,5.5-39.22,6.27-57.14.23-5.35-2.27-28.15-5.1-33.6-1.46-2.81-12.41-10.22-14.23-10.95-4.11-1.64-8.76-2.5-13.45-2.5h0ZM188.95,257.75c9.46-19.96,31.53-64.05,54-91.38,1.63-1.98,3.01-3.62,4.18-4.98-.26,1.58-.54,3.25-.82,4.9l-.53,3.12c-.09.16-.31.44-.45.61-.48.6-1.22,1.51-1.46,2.9-2.24,12.67-4.22,25.67-6.03,37.83-.33,2.19-.58,5.81-.87,10-.41,5.83-1.21,17.39-2.44,21.36l-45.57,15.63h0Z"/>
        </g>
      </g>
    </g>
  </g>
</svg>